<mxfile host="Electron" modified="2024-02-09T10:25:51.873Z" agent="Mozilla/5.0 (X11; Linux x86_64) AppleWebKit/537.36 (KHTML, like Gecko) draw.io/22.1.11 Chrome/114.0.5735.289 Electron/25.9.8 Safari/537.36" etag="MLwg27mfrPVA8Zoq1pQG" version="22.1.11" type="device">
  <diagram id="C5RBs43oDa-KdzZeNtuy" name="Page-1">
    <mxGraphModel dx="1875" dy="1099" grid="1" gridSize="10" guides="1" tooltips="1" connect="1" arrows="1" fold="1" page="1" pageScale="1" pageWidth="1600" pageHeight="900" background="none" math="0" shadow="0">
      <root>
        <mxCell id="WIyWlLk6GJQsqaUBKTNV-0" />
        <mxCell id="WIyWlLk6GJQsqaUBKTNV-1" parent="WIyWlLk6GJQsqaUBKTNV-0" />
        <mxCell id="U5GqgQL6ftk-DC07x9Vj-40" style="edgeStyle=orthogonalEdgeStyle;rounded=0;orthogonalLoop=1;jettySize=auto;html=1;exitX=0.5;exitY=0;exitDx=0;exitDy=0;endArrow=block;endFill=0;fontFamily=Titillium Web;" parent="WIyWlLk6GJQsqaUBKTNV-1" source="U5GqgQL6ftk-DC07x9Vj-12" target="U5GqgQL6ftk-DC07x9Vj-35" edge="1">
          <mxGeometry relative="1" as="geometry" />
        </mxCell>
        <mxCell id="U5GqgQL6ftk-DC07x9Vj-12" value="&lt;font style=&quot;font-size: 14px;&quot;&gt;Activity&lt;/font&gt;" style="swimlane;fontStyle=1;align=center;verticalAlign=top;childLayout=stackLayout;horizontal=1;startSize=26;horizontalStack=0;resizeParent=1;resizeParentMax=0;resizeLast=0;collapsible=1;marginBottom=0;whiteSpace=wrap;html=1;fontFamily=Titillium Web;" parent="WIyWlLk6GJQsqaUBKTNV-1" vertex="1">
          <mxGeometry x="170" y="160" width="140" height="134" as="geometry">
            <mxRectangle x="790" y="120" width="80" height="30" as="alternateBounds" />
          </mxGeometry>
        </mxCell>
        <mxCell id="U5GqgQL6ftk-DC07x9Vj-13" value="&lt;div&gt;+ datetime: Datetime&lt;/div&gt;&lt;div&gt;+ method: str&lt;/div&gt;&lt;div&gt;+ location: str&lt;/div&gt;&lt;div&gt;+ steps: &lt;b&gt;ActivityStep&lt;/b&gt;&lt;br&gt;&lt;/div&gt;" style="text;strokeColor=none;fillColor=none;align=left;verticalAlign=top;spacingLeft=4;spacingRight=4;overflow=hidden;rotatable=0;points=[[0,0.5],[1,0.5]];portConstraint=eastwest;whiteSpace=wrap;html=1;fontFamily=Titillium Web;" parent="U5GqgQL6ftk-DC07x9Vj-12" vertex="1">
          <mxGeometry y="26" width="140" height="74" as="geometry" />
        </mxCell>
        <mxCell id="U5GqgQL6ftk-DC07x9Vj-14" value="" style="line;strokeWidth=1;fillColor=none;align=left;verticalAlign=middle;spacingTop=-1;spacingLeft=3;spacingRight=3;rotatable=0;labelPosition=right;points=[];portConstraint=eastwest;strokeColor=inherit;fontFamily=Titillium Web;" parent="U5GqgQL6ftk-DC07x9Vj-12" vertex="1">
          <mxGeometry y="100" width="140" height="8" as="geometry" />
        </mxCell>
        <mxCell id="U5GqgQL6ftk-DC07x9Vj-15" value="+ normalize()" style="text;strokeColor=none;fillColor=none;align=left;verticalAlign=top;spacingLeft=4;spacingRight=4;overflow=hidden;rotatable=0;points=[[0,0.5],[1,0.5]];portConstraint=eastwest;whiteSpace=wrap;html=1;fontFamily=Titillium Web;" parent="U5GqgQL6ftk-DC07x9Vj-12" vertex="1">
          <mxGeometry y="108" width="140" height="26" as="geometry" />
        </mxCell>
        <mxCell id="U5GqgQL6ftk-DC07x9Vj-34" style="edgeStyle=orthogonalEdgeStyle;rounded=0;orthogonalLoop=1;jettySize=auto;html=1;entryX=0.5;entryY=1;entryDx=0;entryDy=0;endArrow=block;endFill=0;fontFamily=Titillium Web;" parent="WIyWlLk6GJQsqaUBKTNV-1" source="ploM4A354iRqME2_w59B-9" target="U5GqgQL6ftk-DC07x9Vj-12" edge="1">
          <mxGeometry relative="1" as="geometry">
            <mxPoint x="240" y="350" as="sourcePoint" />
          </mxGeometry>
        </mxCell>
        <mxCell id="U5GqgQL6ftk-DC07x9Vj-28" value="program" style="edgeStyle=orthogonalEdgeStyle;rounded=0;orthogonalLoop=1;jettySize=auto;html=1;endArrow=diamond;endFill=1;fontFamily=Titillium Web;" parent="WIyWlLk6GJQsqaUBKTNV-1" source="ploM4A354iRqME2_w59B-15" target="ploM4A354iRqME2_w59B-10" edge="1">
          <mxGeometry x="-0.18" relative="1" as="geometry">
            <mxPoint as="offset" />
            <mxPoint x="430" y="420" as="sourcePoint" />
            <mxPoint x="320" y="423" as="targetPoint" />
          </mxGeometry>
        </mxCell>
        <mxCell id="U5GqgQL6ftk-DC07x9Vj-33" style="edgeStyle=orthogonalEdgeStyle;rounded=0;orthogonalLoop=1;jettySize=auto;html=1;entryX=0.5;entryY=1;entryDx=0;entryDy=0;endArrow=block;endFill=0;fontFamily=Titillium Web;" parent="WIyWlLk6GJQsqaUBKTNV-1" source="ploM4A354iRqME2_w59B-15" target="U5GqgQL6ftk-DC07x9Vj-29" edge="1">
          <mxGeometry relative="1" as="geometry">
            <mxPoint x="430" y="220" as="sourcePoint" />
          </mxGeometry>
        </mxCell>
        <mxCell id="U5GqgQL6ftk-DC07x9Vj-39" style="edgeStyle=orthogonalEdgeStyle;rounded=0;orthogonalLoop=1;jettySize=auto;html=1;exitX=0.5;exitY=0;exitDx=0;exitDy=0;endArrow=block;endFill=0;fontFamily=Titillium Web;" parent="WIyWlLk6GJQsqaUBKTNV-1" source="U5GqgQL6ftk-DC07x9Vj-29" target="U5GqgQL6ftk-DC07x9Vj-35" edge="1">
          <mxGeometry relative="1" as="geometry" />
        </mxCell>
        <mxCell id="U5GqgQL6ftk-DC07x9Vj-29" value="Entity" style="swimlane;fontStyle=1;align=center;verticalAlign=top;childLayout=stackLayout;horizontal=1;startSize=26;horizontalStack=0;resizeParent=1;resizeParentMax=0;resizeLast=0;collapsible=1;marginBottom=0;whiteSpace=wrap;html=1;fontFamily=Titillium Web;" parent="WIyWlLk6GJQsqaUBKTNV-1" vertex="1">
          <mxGeometry x="370" y="87" width="120" height="34" as="geometry">
            <mxRectangle x="230" y="97" width="80" height="30" as="alternateBounds" />
          </mxGeometry>
        </mxCell>
        <mxCell id="U5GqgQL6ftk-DC07x9Vj-31" value="" style="line;strokeWidth=1;fillColor=none;align=left;verticalAlign=middle;spacingTop=-1;spacingLeft=3;spacingRight=3;rotatable=0;labelPosition=right;points=[];portConstraint=eastwest;strokeColor=inherit;fontFamily=Titillium Web;" parent="U5GqgQL6ftk-DC07x9Vj-29" vertex="1">
          <mxGeometry y="26" width="120" height="8" as="geometry" />
        </mxCell>
        <mxCell id="U5GqgQL6ftk-DC07x9Vj-35" value="&lt;font style=&quot;font-size: 14px;&quot;&gt;BaseSection&lt;/font&gt;" style="swimlane;fontStyle=1;align=center;verticalAlign=top;childLayout=stackLayout;horizontal=1;startSize=26;horizontalStack=0;resizeParent=1;resizeParentMax=0;resizeLast=0;collapsible=1;marginBottom=0;whiteSpace=wrap;html=1;fontFamily=Titillium Web;" parent="WIyWlLk6GJQsqaUBKTNV-1" vertex="1">
          <mxGeometry x="170" width="140" height="124" as="geometry">
            <mxRectangle x="790" y="120" width="80" height="30" as="alternateBounds" />
          </mxGeometry>
        </mxCell>
        <mxCell id="U5GqgQL6ftk-DC07x9Vj-36" value="&lt;div&gt;+ name: str&lt;/div&gt;&lt;div&gt;+ datetime: Datetime&lt;/div&gt;&lt;div&gt;+ lab_id: str&lt;/div&gt;&lt;div&gt;+ description: str&lt;br&gt;&lt;/div&gt;" style="text;strokeColor=none;fillColor=none;align=left;verticalAlign=top;spacingLeft=4;spacingRight=4;overflow=hidden;rotatable=0;points=[[0,0.5],[1,0.5]];portConstraint=eastwest;whiteSpace=wrap;html=1;fontFamily=Titillium Web;" parent="U5GqgQL6ftk-DC07x9Vj-35" vertex="1">
          <mxGeometry y="26" width="140" height="64" as="geometry" />
        </mxCell>
        <mxCell id="U5GqgQL6ftk-DC07x9Vj-37" value="" style="line;strokeWidth=1;fillColor=none;align=left;verticalAlign=middle;spacingTop=-1;spacingLeft=3;spacingRight=3;rotatable=0;labelPosition=right;points=[];portConstraint=eastwest;strokeColor=inherit;fontFamily=Titillium Web;" parent="U5GqgQL6ftk-DC07x9Vj-35" vertex="1">
          <mxGeometry y="90" width="140" height="8" as="geometry" />
        </mxCell>
        <mxCell id="U5GqgQL6ftk-DC07x9Vj-38" value="+ normalize()" style="text;strokeColor=none;fillColor=none;align=left;verticalAlign=top;spacingLeft=4;spacingRight=4;overflow=hidden;rotatable=0;points=[[0,0.5],[1,0.5]];portConstraint=eastwest;whiteSpace=wrap;html=1;fontFamily=Titillium Web;" parent="U5GqgQL6ftk-DC07x9Vj-35" vertex="1">
          <mxGeometry y="98" width="140" height="26" as="geometry" />
        </mxCell>
        <mxCell id="-lElYZLikcV54iIBVmyU-9" style="edgeStyle=orthogonalEdgeStyle;rounded=0;orthogonalLoop=1;jettySize=auto;html=1;exitX=0.5;exitY=0;exitDx=0;exitDy=0;endArrow=block;endFill=0;fontFamily=Titillium Web;" parent="WIyWlLk6GJQsqaUBKTNV-1" source="-lElYZLikcV54iIBVmyU-5" target="ploM4A354iRqME2_w59B-9" edge="1">
          <mxGeometry relative="1" as="geometry">
            <mxPoint x="240" y="478" as="targetPoint" />
          </mxGeometry>
        </mxCell>
        <mxCell id="GcffmOKPlSCTgOieq29l-12" style="edgeStyle=orthogonalEdgeStyle;rounded=0;orthogonalLoop=1;jettySize=auto;html=1;exitX=0;exitY=0;exitDx=0;exitDy=0;endArrow=block;endFill=0;" parent="WIyWlLk6GJQsqaUBKTNV-1" source="-lElYZLikcV54iIBVmyU-5" target="GcffmOKPlSCTgOieq29l-7" edge="1">
          <mxGeometry relative="1" as="geometry">
            <Array as="points">
              <mxPoint x="70" y="540" />
            </Array>
          </mxGeometry>
        </mxCell>
        <mxCell id="-lElYZLikcV54iIBVmyU-5" value="&lt;font style=&quot;font-size: 14px;&quot;&gt;Computation&lt;/font&gt;" style="swimlane;fontStyle=1;align=center;verticalAlign=top;childLayout=stackLayout;horizontal=1;startSize=26;horizontalStack=0;resizeParent=1;resizeParentMax=0;resizeLast=0;collapsible=1;marginBottom=0;whiteSpace=wrap;html=1;fillColor=#009999;fontColor=#ffffff;fontFamily=Titillium Web;" parent="WIyWlLk6GJQsqaUBKTNV-1" vertex="1">
          <mxGeometry x="150" y="524" width="180" height="150" as="geometry">
            <mxRectangle x="790" y="120" width="80" height="30" as="alternateBounds" />
          </mxGeometry>
        </mxCell>
        <mxCell id="-lElYZLikcV54iIBVmyU-6" value="&lt;span style=&quot;color: rgb(0, 0, 0); font-family: &amp;quot;Titillium Web&amp;quot;; font-size: 12px; font-style: normal; font-variant-ligatures: normal; font-variant-caps: normal; font-weight: 400; letter-spacing: normal; orphans: 2; text-align: left; text-indent: 0px; text-transform: none; widows: 2; word-spacing: 0px; -webkit-text-stroke-width: 0px; background-color: rgb(251, 251, 251); text-decoration-thickness: initial; text-decoration-style: initial; text-decoration-color: initial; float: none; display: inline !important;&quot;&gt;+ model_system:&lt;span&gt;&amp;nbsp;&lt;/span&gt;&lt;/span&gt;&lt;span style=&quot;border-color: var(--border-color); color: rgb(0, 0, 0); font-family: &amp;quot;Titillium Web&amp;quot;; font-size: 12px; font-style: normal; font-variant-ligatures: normal; font-variant-caps: normal; letter-spacing: normal; orphans: 2; text-align: left; text-indent: 0px; text-transform: none; widows: 2; word-spacing: 0px; -webkit-text-stroke-width: 0px; background-color: rgb(251, 251, 251); text-decoration-thickness: initial; text-decoration-style: initial; text-decoration-color: initial;&quot;&gt;&lt;b&gt;ModelSystem&lt;/b&gt;&lt;br&gt;+ model_method:&lt;/span&gt;&lt;span style=&quot;border-color: var(--border-color); color: rgb(0, 0, 0); font-family: &amp;quot;Titillium Web&amp;quot;; font-size: 12px; font-style: normal; font-variant-ligatures: normal; font-variant-caps: normal; letter-spacing: normal; orphans: 2; text-align: left; text-indent: 0px; text-transform: none; widows: 2; word-spacing: 0px; -webkit-text-stroke-width: 0px; background-color: rgb(251, 251, 251); text-decoration-thickness: initial; text-decoration-style: initial; text-decoration-color: initial;&quot;&gt;&lt;b&gt;&amp;nbsp;&lt;/b&gt;&lt;span style=&quot;border-color: var(--border-color);&quot;&gt;&lt;b&gt;ModelMethod&lt;/b&gt;&lt;br&gt;+ outputs:&lt;/span&gt;&lt;b style=&quot;font-weight: bold; border-color: var(--border-color);&quot;&gt;&amp;nbsp;&lt;b style=&quot;border-color: var(--border-color);&quot;&gt;Outputs&lt;br style=&quot;border-color: var(--border-color);&quot;&gt;&lt;/b&gt;&lt;/b&gt;&lt;/span&gt;" style="text;strokeColor=none;fillColor=none;align=left;verticalAlign=top;spacingLeft=4;spacingRight=4;overflow=hidden;rotatable=0;points=[[0,0.5],[1,0.5]];portConstraint=eastwest;whiteSpace=wrap;html=1;fontFamily=Titillium Web;" parent="-lElYZLikcV54iIBVmyU-5" vertex="1">
          <mxGeometry y="26" width="180" height="64" as="geometry" />
        </mxCell>
        <mxCell id="-lElYZLikcV54iIBVmyU-7" value="" style="line;strokeWidth=1;fillColor=none;align=left;verticalAlign=middle;spacingTop=-1;spacingLeft=3;spacingRight=3;rotatable=0;labelPosition=right;points=[];portConstraint=eastwest;strokeColor=inherit;fontFamily=Titillium Web;" parent="-lElYZLikcV54iIBVmyU-5" vertex="1">
          <mxGeometry y="90" width="180" height="8" as="geometry" />
        </mxCell>
        <mxCell id="-lElYZLikcV54iIBVmyU-8" value="&lt;div&gt;- set_system_branch_depth()&lt;br&gt;&lt;/div&gt;&lt;div&gt;+ normalize()&lt;/div&gt;" style="text;strokeColor=none;fillColor=none;align=left;verticalAlign=top;spacingLeft=4;spacingRight=4;overflow=hidden;rotatable=0;points=[[0,0.5],[1,0.5]];portConstraint=eastwest;whiteSpace=wrap;html=1;fontFamily=Titillium Web;" parent="-lElYZLikcV54iIBVmyU-5" vertex="1">
          <mxGeometry y="98" width="180" height="52" as="geometry" />
        </mxCell>
        <mxCell id="-lElYZLikcV54iIBVmyU-25" style="edgeStyle=orthogonalEdgeStyle;rounded=0;orthogonalLoop=1;jettySize=auto;html=1;endArrow=block;endFill=0;fontFamily=Titillium Web;" parent="WIyWlLk6GJQsqaUBKTNV-1" source="-lElYZLikcV54iIBVmyU-10" target="-lElYZLikcV54iIBVmyU-18" edge="1">
          <mxGeometry relative="1" as="geometry" />
        </mxCell>
        <mxCell id="-lElYZLikcV54iIBVmyU-10" value="&lt;font style=&quot;font-size: 14px;&quot;&gt;ModelSystem&lt;/font&gt;" style="swimlane;fontStyle=1;align=center;verticalAlign=top;childLayout=stackLayout;horizontal=1;startSize=26;horizontalStack=0;resizeParent=1;resizeParentMax=0;resizeLast=0;collapsible=1;marginBottom=0;whiteSpace=wrap;html=1;fillColor=#009999;fontColor=#ffffff;fontFamily=Titillium Web;" parent="WIyWlLk6GJQsqaUBKTNV-1" vertex="1">
          <mxGeometry x="545" y="470" width="250" height="280" as="geometry">
            <mxRectangle x="790" y="120" width="80" height="30" as="alternateBounds" />
          </mxGeometry>
        </mxCell>
        <mxCell id="-lElYZLikcV54iIBVmyU-11" value="&lt;div&gt;+ name: str&lt;/div&gt;&lt;div style=&quot;border-color: var(--border-color);&quot;&gt;+ type: MEnum&lt;/div&gt;&lt;div&gt;&lt;div style=&quot;border-color: var(--border-color);&quot;&gt;+ dimensionality: np.int32&lt;/div&gt;&lt;/div&gt;&lt;div style=&quot;border-color: var(--border-color);&quot;&gt;&lt;div style=&quot;border-color: var(--border-color);&quot;&gt;+ is_representative: bool&lt;br style=&quot;border-color: var(--border-color);&quot;&gt;&lt;/div&gt;&lt;div&gt;&lt;span style=&quot;background-color: initial;&quot;&gt;+ time_step: np.int32&lt;/span&gt;&lt;/div&gt;&lt;/div&gt;&lt;div&gt;+ atomic_cell: &lt;b&gt;AtomicCell&lt;/b&gt;&lt;/div&gt;&lt;div&gt;+ symmetry: &lt;b&gt;Symmetry&lt;/b&gt;&lt;/div&gt;&lt;div&gt;&lt;span style=&quot;background-color: initial;&quot;&gt;+ chemical_formula: &lt;b&gt;ChemicalFormula&lt;/b&gt;&lt;/span&gt;&lt;/div&gt;&lt;div&gt;&lt;span style=&quot;background-color: initial;&quot;&gt;+ branch_label: str&lt;/span&gt;&lt;br&gt;&lt;/div&gt;&lt;div&gt;+ branch_depth: np.int32&lt;/div&gt;&lt;div&gt;+ atom_indices: np.int32 [*]&lt;/div&gt;&lt;div&gt;+ bond_list: np.int32&lt;/div&gt;&lt;div&gt;+ model_system: &lt;b&gt;ModelSystem&lt;/b&gt;&lt;/div&gt;" style="text;strokeColor=none;fillColor=none;align=left;verticalAlign=top;spacingLeft=4;spacingRight=4;overflow=hidden;rotatable=0;points=[[0,0.5],[1,0.5]];portConstraint=eastwest;whiteSpace=wrap;html=1;fontFamily=Titillium Web;" parent="-lElYZLikcV54iIBVmyU-10" vertex="1">
          <mxGeometry y="26" width="250" height="204" as="geometry" />
        </mxCell>
        <mxCell id="-lElYZLikcV54iIBVmyU-12" value="" style="line;strokeWidth=1;fillColor=none;align=left;verticalAlign=middle;spacingTop=-1;spacingLeft=3;spacingRight=3;rotatable=0;labelPosition=right;points=[];portConstraint=eastwest;strokeColor=inherit;fontFamily=Titillium Web;" parent="-lElYZLikcV54iIBVmyU-10" vertex="1">
          <mxGeometry y="230" width="250" height="8" as="geometry" />
        </mxCell>
        <mxCell id="-lElYZLikcV54iIBVmyU-13" value="&lt;div&gt;+ resolve_system_type_and_dimensionality()&lt;/div&gt;&lt;div&gt;&lt;span style=&quot;background-color: initial;&quot;&gt;+ normalize()&lt;/span&gt;&lt;/div&gt;" style="text;strokeColor=none;fillColor=none;align=left;verticalAlign=top;spacingLeft=4;spacingRight=4;overflow=hidden;rotatable=0;points=[[0,0.5],[1,0.5]];portConstraint=eastwest;whiteSpace=wrap;html=1;fontFamily=Titillium Web;" parent="-lElYZLikcV54iIBVmyU-10" vertex="1">
          <mxGeometry y="238" width="250" height="42" as="geometry" />
        </mxCell>
        <mxCell id="-lElYZLikcV54iIBVmyU-15" value="model_system (repeats)" style="edgeStyle=orthogonalEdgeStyle;rounded=0;orthogonalLoop=1;jettySize=auto;html=1;exitX=0;exitY=0.5;exitDx=0;exitDy=0;endArrow=diamond;endFill=1;fontFamily=Titillium Web;" parent="WIyWlLk6GJQsqaUBKTNV-1" source="-lElYZLikcV54iIBVmyU-11" target="-lElYZLikcV54iIBVmyU-5" edge="1">
          <mxGeometry relative="1" as="geometry" />
        </mxCell>
        <mxCell id="GcffmOKPlSCTgOieq29l-13" style="edgeStyle=orthogonalEdgeStyle;rounded=0;orthogonalLoop=1;jettySize=auto;html=1;exitX=0.5;exitY=0;exitDx=0;exitDy=0;endArrow=block;endFill=0;entryX=1;entryY=0.5;entryDx=0;entryDy=0;" parent="WIyWlLk6GJQsqaUBKTNV-1" source="-lElYZLikcV54iIBVmyU-18" target="U5GqgQL6ftk-DC07x9Vj-29" edge="1">
          <mxGeometry relative="1" as="geometry" />
        </mxCell>
        <mxCell id="-lElYZLikcV54iIBVmyU-18" value="&lt;font style=&quot;font-size: 14px;&quot;&gt;System&lt;/font&gt;" style="swimlane;fontStyle=1;align=center;verticalAlign=top;childLayout=stackLayout;horizontal=1;startSize=26;horizontalStack=0;resizeParent=1;resizeParentMax=0;resizeLast=0;collapsible=1;marginBottom=0;whiteSpace=wrap;html=1;fontFamily=Titillium Web;" parent="WIyWlLk6GJQsqaUBKTNV-1" vertex="1">
          <mxGeometry x="530" y="194" width="280" height="100" as="geometry">
            <mxRectangle x="790" y="120" width="80" height="30" as="alternateBounds" />
          </mxGeometry>
        </mxCell>
        <mxCell id="-lElYZLikcV54iIBVmyU-19" value="+ elemental_composition: &lt;b&gt;ElementalComposition&lt;/b&gt;" style="text;strokeColor=none;fillColor=none;align=left;verticalAlign=top;spacingLeft=4;spacingRight=4;overflow=hidden;rotatable=0;points=[[0,0.5],[1,0.5]];portConstraint=eastwest;whiteSpace=wrap;html=1;fontFamily=Titillium Web;" parent="-lElYZLikcV54iIBVmyU-18" vertex="1">
          <mxGeometry y="26" width="280" height="24" as="geometry" />
        </mxCell>
        <mxCell id="-lElYZLikcV54iIBVmyU-20" value="" style="line;strokeWidth=1;fillColor=none;align=left;verticalAlign=middle;spacingTop=-1;spacingLeft=3;spacingRight=3;rotatable=0;labelPosition=right;points=[];portConstraint=eastwest;strokeColor=inherit;fontFamily=Titillium Web;" parent="-lElYZLikcV54iIBVmyU-18" vertex="1">
          <mxGeometry y="50" width="280" height="8" as="geometry" />
        </mxCell>
        <mxCell id="-lElYZLikcV54iIBVmyU-21" value="&lt;div&gt;- fill_fractions()&lt;/div&gt;&lt;div&gt;+ normalize()&lt;br&gt;&lt;/div&gt;" style="text;strokeColor=none;fillColor=none;align=left;verticalAlign=top;spacingLeft=4;spacingRight=4;overflow=hidden;rotatable=0;points=[[0,0.5],[1,0.5]];portConstraint=eastwest;whiteSpace=wrap;html=1;fontFamily=Titillium Web;" parent="-lElYZLikcV54iIBVmyU-18" vertex="1">
          <mxGeometry y="58" width="280" height="42" as="geometry" />
        </mxCell>
        <mxCell id="-lElYZLikcV54iIBVmyU-31" style="edgeStyle=orthogonalEdgeStyle;rounded=0;orthogonalLoop=1;jettySize=auto;html=1;endArrow=block;endFill=0;fontFamily=Titillium Web;" parent="WIyWlLk6GJQsqaUBKTNV-1" source="-lElYZLikcV54iIBVmyU-27" target="ploM4A354iRqME2_w59B-1" edge="1">
          <mxGeometry relative="1" as="geometry">
            <mxPoint x="1100" y="146.02857142857147" as="targetPoint" />
          </mxGeometry>
        </mxCell>
        <mxCell id="ploM4A354iRqME2_w59B-26" value="atomic_cell (repeats)" style="edgeStyle=orthogonalEdgeStyle;rounded=0;orthogonalLoop=1;jettySize=auto;html=1;endArrow=diamond;endFill=1;" edge="1" parent="WIyWlLk6GJQsqaUBKTNV-1" source="-lElYZLikcV54iIBVmyU-27" target="-lElYZLikcV54iIBVmyU-10">
          <mxGeometry x="0.0006" relative="1" as="geometry">
            <mxPoint as="offset" />
          </mxGeometry>
        </mxCell>
        <mxCell id="-lElYZLikcV54iIBVmyU-27" value="AtomicCell" style="swimlane;fontStyle=1;align=center;verticalAlign=top;childLayout=stackLayout;horizontal=1;startSize=26;horizontalStack=0;resizeParent=1;resizeParentMax=0;resizeLast=0;collapsible=1;marginBottom=0;whiteSpace=wrap;html=1;fillColor=#009999;fontColor=#ffffff;fontFamily=Titillium Web;" parent="WIyWlLk6GJQsqaUBKTNV-1" vertex="1">
          <mxGeometry x="990" y="330" width="270" height="250" as="geometry">
            <mxRectangle x="790" y="120" width="80" height="30" as="alternateBounds" />
          </mxGeometry>
        </mxCell>
        <mxCell id="-lElYZLikcV54iIBVmyU-28" value="&lt;div&gt;+ type: MEnum&lt;/div&gt;&lt;div&gt;&lt;span style=&quot;background-color: initial;&quot;&gt;+ labels: str [*]&lt;/span&gt;&lt;br&gt;&lt;/div&gt;&lt;div&gt;+ atomic_numbers: np.int32 [*]&lt;br&gt;&lt;/div&gt;&lt;div&gt;+ positions: np.float64 [*, 3], m&lt;/div&gt;&lt;div&gt;+ lattice_vectors: np.float64 [3, 3], m&lt;br&gt;&lt;/div&gt;&lt;div&gt;+ lattice_vectors_reciprocal: np.float64 [3, 3], 1/m&lt;br&gt;&lt;/div&gt;&lt;div&gt;+ periodic_boundary_conditions: bool [3, 3]&lt;/div&gt;&lt;div&gt;+ velocities: np.float64 [*, 3], m/s&lt;/div&gt;&lt;div&gt;+ supercell_matrix: np.int32 [3, 3]&lt;/div&gt;&lt;div&gt;+ equivalent_atoms: np.int32 [*]&lt;/div&gt;&lt;div&gt;+ wyckoff_letters: str [*]&lt;/div&gt;" style="text;strokeColor=none;fillColor=none;align=left;verticalAlign=top;spacingLeft=4;spacingRight=4;overflow=hidden;rotatable=0;points=[[0,0.5],[1,0.5]];portConstraint=eastwest;whiteSpace=wrap;html=1;fontFamily=Titillium Web;" parent="-lElYZLikcV54iIBVmyU-27" vertex="1">
          <mxGeometry y="26" width="270" height="174" as="geometry" />
        </mxCell>
        <mxCell id="-lElYZLikcV54iIBVmyU-29" value="" style="line;strokeWidth=1;fillColor=none;align=left;verticalAlign=middle;spacingTop=-1;spacingLeft=3;spacingRight=3;rotatable=0;labelPosition=right;points=[];portConstraint=eastwest;strokeColor=inherit;fontFamily=Titillium Web;" parent="-lElYZLikcV54iIBVmyU-27" vertex="1">
          <mxGeometry y="200" width="270" height="8" as="geometry" />
        </mxCell>
        <mxCell id="-lElYZLikcV54iIBVmyU-30" value="+ to_ase_atoms()&lt;br&gt;+ normalize()" style="text;strokeColor=none;fillColor=none;align=left;verticalAlign=top;spacingLeft=4;spacingRight=4;overflow=hidden;rotatable=0;points=[[0,0.5],[1,0.5]];portConstraint=eastwest;whiteSpace=wrap;html=1;fontFamily=Titillium Web;" parent="-lElYZLikcV54iIBVmyU-27" vertex="1">
          <mxGeometry y="208" width="270" height="42" as="geometry" />
        </mxCell>
        <mxCell id="GcffmOKPlSCTgOieq29l-7" value="&lt;font style=&quot;font-size: 14px;&quot;&gt;EntryData&lt;/font&gt;" style="swimlane;fontStyle=1;align=center;verticalAlign=top;childLayout=stackLayout;horizontal=1;startSize=26;horizontalStack=0;resizeParent=1;resizeParentMax=0;resizeLast=0;collapsible=1;marginBottom=0;whiteSpace=wrap;html=1;fontFamily=Titillium Web;" parent="WIyWlLk6GJQsqaUBKTNV-1" vertex="1">
          <mxGeometry width="140" height="60" as="geometry">
            <mxRectangle x="790" y="120" width="80" height="30" as="alternateBounds" />
          </mxGeometry>
        </mxCell>
        <mxCell id="GcffmOKPlSCTgOieq29l-9" value="" style="line;strokeWidth=1;fillColor=none;align=left;verticalAlign=middle;spacingTop=-1;spacingLeft=3;spacingRight=3;rotatable=0;labelPosition=right;points=[];portConstraint=eastwest;strokeColor=inherit;fontFamily=Titillium Web;" parent="GcffmOKPlSCTgOieq29l-7" vertex="1">
          <mxGeometry y="26" width="140" height="8" as="geometry" />
        </mxCell>
        <mxCell id="GcffmOKPlSCTgOieq29l-10" value="+ normalize()" style="text;strokeColor=none;fillColor=none;align=left;verticalAlign=top;spacingLeft=4;spacingRight=4;overflow=hidden;rotatable=0;points=[[0,0.5],[1,0.5]];portConstraint=eastwest;whiteSpace=wrap;html=1;fontFamily=Titillium Web;" parent="GcffmOKPlSCTgOieq29l-7" vertex="1">
          <mxGeometry y="34" width="140" height="26" as="geometry" />
        </mxCell>
        <mxCell id="GcffmOKPlSCTgOieq29l-17" value="&lt;font style=&quot;font-size: 10px;&quot; face=&quot;Titillium Web&quot;&gt;model_system (proxy, repeats)&lt;/font&gt;" style="edgeStyle=orthogonalEdgeStyle;rounded=0;orthogonalLoop=1;jettySize=auto;html=1;exitX=0.997;exitY=0.045;exitDx=0;exitDy=0;exitPerimeter=0;endArrow=diamond;endFill=1;" parent="WIyWlLk6GJQsqaUBKTNV-1" source="-lElYZLikcV54iIBVmyU-10" target="-lElYZLikcV54iIBVmyU-10" edge="1">
          <mxGeometry relative="1" as="geometry">
            <Array as="points">
              <mxPoint x="794" y="486" />
              <mxPoint x="815" y="486" />
              <mxPoint x="815" y="430" />
              <mxPoint x="732" y="430" />
            </Array>
          </mxGeometry>
        </mxCell>
        <mxCell id="ploM4A354iRqME2_w59B-1" value="GeometricSpace" style="swimlane;fontStyle=1;align=center;verticalAlign=top;childLayout=stackLayout;horizontal=1;startSize=26;horizontalStack=0;resizeParent=1;resizeParentMax=0;resizeLast=0;collapsible=1;marginBottom=0;whiteSpace=wrap;html=1;fontFamily=Titillium Web;" vertex="1" parent="WIyWlLk6GJQsqaUBKTNV-1">
          <mxGeometry x="850" y="14" width="280" height="280" as="geometry">
            <mxRectangle x="790" y="120" width="80" height="30" as="alternateBounds" />
          </mxGeometry>
        </mxCell>
        <mxCell id="ploM4A354iRqME2_w59B-2" value="&lt;div style=&quot;border-color: var(--border-color);&quot;&gt;+ length_vector_a: np.float64, m&lt;br style=&quot;border-color: var(--border-color);&quot;&gt;&lt;/div&gt;+ length_vector_b: np.float64, m&lt;br style=&quot;border-color: var(--border-color);&quot;&gt;+ length_vector_c: np.float64, m&lt;br style=&quot;border-color: var(--border-color);&quot;&gt;+ angle_vectors_b_c: np.float64, radian&lt;br style=&quot;border-color: var(--border-color);&quot;&gt;+ angle_vectors_a_c: np.float64, radian&lt;br style=&quot;border-color: var(--border-color);&quot;&gt;+ angle_vectors_a_b: np.float64, radian&lt;br style=&quot;border-color: var(--border-color);&quot;&gt;+ volume: np.float64, m**3&lt;br style=&quot;border-color: var(--border-color);&quot;&gt;+ surface_area: np.float64, m**2&lt;br style=&quot;border-color: var(--border-color);&quot;&gt;+ area: np.float64, m**2&lt;br style=&quot;border-color: var(--border-color);&quot;&gt;+ length: np.float64, m&lt;br style=&quot;border-color: var(--border-color);&quot;&gt;+ coordinates_system: MEnum&lt;br style=&quot;border-color: var(--border-color);&quot;&gt;+ origin_shift: np.float64 [3]&lt;br style=&quot;border-color: var(--border-color);&quot;&gt;+&amp;nbsp;transformation_matrix: np.float64 [3, 3]" style="text;strokeColor=none;fillColor=none;align=left;verticalAlign=top;spacingLeft=4;spacingRight=4;overflow=hidden;rotatable=0;points=[[0,0.5],[1,0.5]];portConstraint=eastwest;whiteSpace=wrap;html=1;fontFamily=Titillium Web;" vertex="1" parent="ploM4A354iRqME2_w59B-1">
          <mxGeometry y="26" width="280" height="204" as="geometry" />
        </mxCell>
        <mxCell id="ploM4A354iRqME2_w59B-3" value="" style="line;strokeWidth=1;fillColor=none;align=left;verticalAlign=middle;spacingTop=-1;spacingLeft=3;spacingRight=3;rotatable=0;labelPosition=right;points=[];portConstraint=eastwest;strokeColor=inherit;fontFamily=Titillium Web;" vertex="1" parent="ploM4A354iRqME2_w59B-1">
          <mxGeometry y="230" width="280" height="8" as="geometry" />
        </mxCell>
        <mxCell id="ploM4A354iRqME2_w59B-4" value="&lt;div&gt;+ get_geometric_space_for_atomic_cell()&lt;/div&gt;&lt;div&gt;+ normalize()&lt;br&gt;&lt;/div&gt;" style="text;strokeColor=none;fillColor=none;align=left;verticalAlign=top;spacingLeft=4;spacingRight=4;overflow=hidden;rotatable=0;points=[[0,0.5],[1,0.5]];portConstraint=eastwest;whiteSpace=wrap;html=1;fontFamily=Titillium Web;" vertex="1" parent="ploM4A354iRqME2_w59B-1">
          <mxGeometry y="238" width="280" height="42" as="geometry" />
        </mxCell>
        <mxCell id="ploM4A354iRqME2_w59B-8" style="edgeStyle=orthogonalEdgeStyle;rounded=0;orthogonalLoop=1;jettySize=auto;html=1;exitX=0;exitY=0.5;exitDx=0;exitDy=0;endArrow=block;endFill=0;" edge="1" parent="WIyWlLk6GJQsqaUBKTNV-1" source="ploM4A354iRqME2_w59B-2" target="U5GqgQL6ftk-DC07x9Vj-29">
          <mxGeometry relative="1" as="geometry" />
        </mxCell>
        <mxCell id="ploM4A354iRqME2_w59B-9" value="&lt;font style=&quot;font-size: 14px;&quot;&gt;Simulation&lt;/font&gt;" style="swimlane;fontStyle=1;align=center;verticalAlign=top;childLayout=stackLayout;horizontal=1;startSize=26;horizontalStack=0;resizeParent=1;resizeParentMax=0;resizeLast=0;collapsible=1;marginBottom=0;whiteSpace=wrap;html=1;fontFamily=Titillium Web;" vertex="1" parent="WIyWlLk6GJQsqaUBKTNV-1">
          <mxGeometry x="170" y="320" width="140" height="164" as="geometry">
            <mxRectangle x="790" y="120" width="80" height="30" as="alternateBounds" />
          </mxGeometry>
        </mxCell>
        <mxCell id="ploM4A354iRqME2_w59B-10" value="&lt;div&gt;+ datetime_end: Datetime&lt;/div&gt;&lt;div&gt;+ cpu1_start: np.float64, s&lt;/div&gt;&lt;div&gt;+ cpu1_end: np.float64, s&lt;/div&gt;&lt;div&gt;+ wall_start: np.float64, s&lt;/div&gt;&lt;div&gt;+ wall_end: np.float64, s&lt;/div&gt;&lt;div&gt;+ program: &lt;b&gt;Program&lt;/b&gt;&lt;br&gt;&lt;/div&gt;" style="text;strokeColor=none;fillColor=none;align=left;verticalAlign=top;spacingLeft=4;spacingRight=4;overflow=hidden;rotatable=0;points=[[0,0.5],[1,0.5]];portConstraint=eastwest;whiteSpace=wrap;html=1;fontFamily=Titillium Web;" vertex="1" parent="ploM4A354iRqME2_w59B-9">
          <mxGeometry y="26" width="140" height="104" as="geometry" />
        </mxCell>
        <mxCell id="ploM4A354iRqME2_w59B-11" value="" style="line;strokeWidth=1;fillColor=none;align=left;verticalAlign=middle;spacingTop=-1;spacingLeft=3;spacingRight=3;rotatable=0;labelPosition=right;points=[];portConstraint=eastwest;strokeColor=inherit;fontFamily=Titillium Web;" vertex="1" parent="ploM4A354iRqME2_w59B-9">
          <mxGeometry y="130" width="140" height="8" as="geometry" />
        </mxCell>
        <mxCell id="ploM4A354iRqME2_w59B-12" value="+ normalize()" style="text;strokeColor=none;fillColor=none;align=left;verticalAlign=top;spacingLeft=4;spacingRight=4;overflow=hidden;rotatable=0;points=[[0,0.5],[1,0.5]];portConstraint=eastwest;whiteSpace=wrap;html=1;fontFamily=Titillium Web;" vertex="1" parent="ploM4A354iRqME2_w59B-9">
          <mxGeometry y="138" width="140" height="26" as="geometry" />
        </mxCell>
        <mxCell id="ploM4A354iRqME2_w59B-15" value="&lt;font style=&quot;font-size: 14px;&quot;&gt;Program&lt;/font&gt;" style="swimlane;fontStyle=1;align=center;verticalAlign=top;childLayout=stackLayout;horizontal=1;startSize=26;horizontalStack=0;resizeParent=1;resizeParentMax=0;resizeLast=0;collapsible=1;marginBottom=0;whiteSpace=wrap;html=1;fontFamily=Titillium Web;" vertex="1" parent="WIyWlLk6GJQsqaUBKTNV-1">
          <mxGeometry x="360" y="176" width="140" height="144" as="geometry">
            <mxRectangle x="790" y="120" width="80" height="30" as="alternateBounds" />
          </mxGeometry>
        </mxCell>
        <mxCell id="ploM4A354iRqME2_w59B-16" value="&lt;div&gt;+ name: str&lt;/div&gt;&lt;div&gt;+ version: str&lt;/div&gt;&lt;div&gt;+ link: str&lt;/div&gt;&lt;div&gt;+ version_internal: str&lt;/div&gt;&lt;div&gt;+ compilation_host: str&lt;/div&gt;" style="text;strokeColor=none;fillColor=none;align=left;verticalAlign=top;spacingLeft=4;spacingRight=4;overflow=hidden;rotatable=0;points=[[0,0.5],[1,0.5]];portConstraint=eastwest;whiteSpace=wrap;html=1;fontFamily=Titillium Web;" vertex="1" parent="ploM4A354iRqME2_w59B-15">
          <mxGeometry y="26" width="140" height="84" as="geometry" />
        </mxCell>
        <mxCell id="ploM4A354iRqME2_w59B-17" value="" style="line;strokeWidth=1;fillColor=none;align=left;verticalAlign=middle;spacingTop=-1;spacingLeft=3;spacingRight=3;rotatable=0;labelPosition=right;points=[];portConstraint=eastwest;strokeColor=inherit;fontFamily=Titillium Web;" vertex="1" parent="ploM4A354iRqME2_w59B-15">
          <mxGeometry y="110" width="140" height="8" as="geometry" />
        </mxCell>
        <mxCell id="ploM4A354iRqME2_w59B-18" value="+ normalize()" style="text;strokeColor=none;fillColor=none;align=left;verticalAlign=top;spacingLeft=4;spacingRight=4;overflow=hidden;rotatable=0;points=[[0,0.5],[1,0.5]];portConstraint=eastwest;whiteSpace=wrap;html=1;fontFamily=Titillium Web;" vertex="1" parent="ploM4A354iRqME2_w59B-15">
          <mxGeometry y="118" width="140" height="26" as="geometry" />
        </mxCell>
        <mxCell id="ploM4A354iRqME2_w59B-24" value="chemical_formula" style="edgeStyle=orthogonalEdgeStyle;rounded=0;orthogonalLoop=1;jettySize=auto;html=1;endArrow=diamond;endFill=1;" edge="1" parent="WIyWlLk6GJQsqaUBKTNV-1" source="ploM4A354iRqME2_w59B-20" target="-lElYZLikcV54iIBVmyU-10">
          <mxGeometry relative="1" as="geometry" />
        </mxCell>
        <mxCell id="ploM4A354iRqME2_w59B-20" value="ChemicalFormula" style="swimlane;fontStyle=1;align=center;verticalAlign=top;childLayout=stackLayout;horizontal=1;startSize=26;horizontalStack=0;resizeParent=1;resizeParentMax=0;resizeLast=0;collapsible=1;marginBottom=0;whiteSpace=wrap;html=1;fillColor=#009999;fontColor=#ffffff;fontFamily=Titillium Web;" vertex="1" parent="WIyWlLk6GJQsqaUBKTNV-1">
          <mxGeometry x="990" y="660" width="170" height="160" as="geometry">
            <mxRectangle x="790" y="120" width="80" height="30" as="alternateBounds" />
          </mxGeometry>
        </mxCell>
        <mxCell id="ploM4A354iRqME2_w59B-21" value="+ descriptive: str&lt;br&gt;+ reduced: str&lt;br&gt;+ iupac: str&lt;br&gt;+ hill: str&lt;br&gt;+ anonymous: str" style="text;strokeColor=none;fillColor=none;align=left;verticalAlign=top;spacingLeft=4;spacingRight=4;overflow=hidden;rotatable=0;points=[[0,0.5],[1,0.5]];portConstraint=eastwest;whiteSpace=wrap;html=1;fontFamily=Titillium Web;" vertex="1" parent="ploM4A354iRqME2_w59B-20">
          <mxGeometry y="26" width="170" height="84" as="geometry" />
        </mxCell>
        <mxCell id="ploM4A354iRqME2_w59B-22" value="" style="line;strokeWidth=1;fillColor=none;align=left;verticalAlign=middle;spacingTop=-1;spacingLeft=3;spacingRight=3;rotatable=0;labelPosition=right;points=[];portConstraint=eastwest;strokeColor=inherit;fontFamily=Titillium Web;" vertex="1" parent="ploM4A354iRqME2_w59B-20">
          <mxGeometry y="110" width="170" height="8" as="geometry" />
        </mxCell>
        <mxCell id="ploM4A354iRqME2_w59B-23" value="+ resolve_chemical_formula()&lt;br&gt;+ normalize()" style="text;strokeColor=none;fillColor=none;align=left;verticalAlign=top;spacingLeft=4;spacingRight=4;overflow=hidden;rotatable=0;points=[[0,0.5],[1,0.5]];portConstraint=eastwest;whiteSpace=wrap;html=1;fontFamily=Titillium Web;" vertex="1" parent="ploM4A354iRqME2_w59B-20">
          <mxGeometry y="118" width="170" height="42" as="geometry" />
        </mxCell>
        <mxCell id="ploM4A354iRqME2_w59B-33" value="atomic_cell_ref" style="edgeStyle=orthogonalEdgeStyle;rounded=0;orthogonalLoop=1;jettySize=auto;html=1;" edge="1" parent="WIyWlLk6GJQsqaUBKTNV-1" source="ploM4A354iRqME2_w59B-27" target="-lElYZLikcV54iIBVmyU-27">
          <mxGeometry relative="1" as="geometry" />
        </mxCell>
        <mxCell id="ploM4A354iRqME2_w59B-27" value="Symmetry" style="swimlane;fontStyle=1;align=center;verticalAlign=top;childLayout=stackLayout;horizontal=1;startSize=26;horizontalStack=0;resizeParent=1;resizeParentMax=0;resizeLast=0;collapsible=1;marginBottom=0;whiteSpace=wrap;html=1;fillColor=#009999;fontColor=#ffffff;fontFamily=Titillium Web;" vertex="1" parent="WIyWlLk6GJQsqaUBKTNV-1">
          <mxGeometry x="1360" y="510" width="220" height="240" as="geometry">
            <mxRectangle x="790" y="120" width="80" height="30" as="alternateBounds" />
          </mxGeometry>
        </mxCell>
        <mxCell id="ploM4A354iRqME2_w59B-28" value="&lt;div style=&quot;border-color: var(--border-color);&quot;&gt;&lt;div style=&quot;border-color: var(--border-color);&quot;&gt;+ bravais_lattice: str&lt;/div&gt;&lt;div style=&quot;border-color: var(--border-color);&quot;&gt;+ hall_symbol: str&lt;br style=&quot;border-color: var(--border-color);&quot;&gt;&lt;/div&gt;&lt;div style=&quot;border-color: var(--border-color);&quot;&gt;+ point_group_symbol: str&lt;/div&gt;&lt;div style=&quot;border-color: var(--border-color);&quot;&gt;+ space_group_number: np.int32&lt;/div&gt;&lt;div style=&quot;border-color: var(--border-color);&quot;&gt;+ space_group_symbol: str&lt;/div&gt;&lt;div style=&quot;border-color: var(--border-color);&quot;&gt;+&amp;nbsp;strukturbericht_designation: str&lt;/div&gt;&lt;div style=&quot;border-color: var(--border-color);&quot;&gt;+ prototype_formula: str&lt;/div&gt;&lt;div style=&quot;border-color: var(--border-color);&quot;&gt;+ prototype_aflow_id: str&lt;/div&gt;&lt;/div&gt;&lt;div style=&quot;border-color: var(--border-color);&quot;&gt;+ atomic_cell_ref:&amp;nbsp;&lt;b style=&quot;border-color: var(--border-color);&quot;&gt;Reference(AtomicCell)&lt;/b&gt;&lt;/div&gt;" style="text;strokeColor=none;fillColor=none;align=left;verticalAlign=top;spacingLeft=4;spacingRight=4;overflow=hidden;rotatable=0;points=[[0,0.5],[1,0.5]];portConstraint=eastwest;whiteSpace=wrap;html=1;fontFamily=Titillium Web;" vertex="1" parent="ploM4A354iRqME2_w59B-27">
          <mxGeometry y="26" width="220" height="144" as="geometry" />
        </mxCell>
        <mxCell id="ploM4A354iRqME2_w59B-29" value="" style="line;strokeWidth=1;fillColor=none;align=left;verticalAlign=middle;spacingTop=-1;spacingLeft=3;spacingRight=3;rotatable=0;labelPosition=right;points=[];portConstraint=eastwest;strokeColor=inherit;fontFamily=Titillium Web;" vertex="1" parent="ploM4A354iRqME2_w59B-27">
          <mxGeometry y="170" width="220" height="8" as="geometry" />
        </mxCell>
        <mxCell id="ploM4A354iRqME2_w59B-30" value="+ resolve_analyzed_atomic_cell()&lt;br&gt;+ resolve_bulk_symmetry()&lt;br&gt;+ normalize()" style="text;strokeColor=none;fillColor=none;align=left;verticalAlign=top;spacingLeft=4;spacingRight=4;overflow=hidden;rotatable=0;points=[[0,0.5],[1,0.5]];portConstraint=eastwest;whiteSpace=wrap;html=1;fontFamily=Titillium Web;" vertex="1" parent="ploM4A354iRqME2_w59B-27">
          <mxGeometry y="178" width="220" height="62" as="geometry" />
        </mxCell>
        <mxCell id="ploM4A354iRqME2_w59B-32" value="symmetry (repeats)" style="edgeStyle=orthogonalEdgeStyle;rounded=0;orthogonalLoop=1;jettySize=auto;html=1;endArrow=diamond;endFill=1;" edge="1" parent="WIyWlLk6GJQsqaUBKTNV-1" source="ploM4A354iRqME2_w59B-27" target="-lElYZLikcV54iIBVmyU-10">
          <mxGeometry relative="1" as="geometry" />
        </mxCell>
      </root>
    </mxGraphModel>
  </diagram>
</mxfile>
